<svg width="200" height="61" viewBox="0 0 200 61" fill="none" xmlns="http://www.w3.org/2000/svg">
<g opacity="0.7">
<path d="M2.45023 5.25718C3.80346 5.25718 4.90046 4.16017 4.90046 2.80694C4.90046 1.45371 3.80346 0.356689 2.45023 0.356689C1.09701 0.356689 0 1.45371 0 2.80694C0 4.16017 1.09701 5.25718 2.45023 5.25718Z" fill="#003F72"/>
<path d="M2.45023 33.1293C3.80346 33.1293 4.90046 32.0322 4.90046 30.679C4.90046 29.3258 3.80346 28.2288 2.45023 28.2288C1.09701 28.2288 0 29.3258 0 30.679C0 32.0322 1.09701 33.1293 2.45023 33.1293Z" fill="#003F72"/>
<path d="M2.45023 61C3.80346 61 4.90046 59.903 4.90046 58.5497C4.90046 57.1965 3.80346 56.0995 2.45023 56.0995C1.09701 56.0995 0 57.1965 0 58.5497C0 59.903 1.09701 61 2.45023 61Z" fill="#003F72"/>
<path d="M30.3218 5.25718C31.675 5.25718 32.772 4.16017 32.772 2.80694C32.772 1.45371 31.675 0.356689 30.3218 0.356689C28.9686 0.356689 27.8716 1.45371 27.8716 2.80694C27.8716 4.16017 28.9686 5.25718 30.3218 5.25718Z" fill="#003F72"/>
<path d="M30.3218 33.1293C31.675 33.1293 32.772 32.0322 32.772 30.679C32.772 29.3258 31.675 28.2288 30.3218 28.2288C28.9686 28.2288 27.8716 29.3258 27.8716 30.679C27.8716 32.0322 28.9686 33.1293 30.3218 33.1293Z" fill="#003F72"/>
<path d="M30.3218 61C31.675 61 32.772 59.903 32.772 58.5497C32.772 57.1965 31.675 56.0995 30.3218 56.0995C28.9686 56.0995 27.8716 57.1965 27.8716 58.5497C27.8716 59.903 28.9686 61 30.3218 61Z" fill="#003F72"/>
<path d="M58.1932 5.25718C59.5464 5.25718 60.6434 4.16017 60.6434 2.80694C60.6434 1.45371 59.5464 0.356689 58.1932 0.356689C56.8399 0.356689 55.7429 1.45371 55.7429 2.80694C55.7429 4.16017 56.8399 5.25718 58.1932 5.25718Z" fill="#003F72"/>
<path d="M58.1932 33.1293C59.5464 33.1293 60.6434 32.0322 60.6434 30.679C60.6434 29.3258 59.5464 28.2288 58.1932 28.2288C56.8399 28.2288 55.7429 29.3258 55.7429 30.679C55.7429 32.0322 56.8399 33.1293 58.1932 33.1293Z" fill="#003F72"/>
<path d="M58.1932 61C59.5464 61 60.6434 59.903 60.6434 58.5497C60.6434 57.1965 59.5464 56.0995 58.1932 56.0995C56.8399 56.0995 55.7429 57.1965 55.7429 58.5497C55.7429 59.903 56.8399 61 58.1932 61Z" fill="#003F72"/>
<path d="M86.0647 5.25718C87.418 5.25718 88.515 4.16017 88.515 2.80694C88.515 1.45371 87.418 0.356689 86.0647 0.356689C84.7115 0.356689 83.6145 1.45371 83.6145 2.80694C83.6145 4.16017 84.7115 5.25718 86.0647 5.25718Z" fill="#003F72"/>
<path d="M86.0647 33.1293C87.418 33.1293 88.515 32.0322 88.515 30.679C88.515 29.3258 87.418 28.2288 86.0647 28.2288C84.7115 28.2288 83.6145 29.3258 83.6145 30.679C83.6145 32.0322 84.7115 33.1293 86.0647 33.1293Z" fill="#003F72"/>
<path d="M86.0647 61C87.418 61 88.515 59.903 88.515 58.5497C88.515 57.1965 87.418 56.0995 86.0647 56.0995C84.7115 56.0995 83.6145 57.1965 83.6145 58.5497C83.6145 59.903 84.7115 61 86.0647 61Z" fill="#003F72"/>
<path d="M113.936 5.25718C115.289 5.25718 116.386 4.16017 116.386 2.80694C116.386 1.45371 115.289 0.356689 113.936 0.356689C112.583 0.356689 111.486 1.45371 111.486 2.80694C111.486 4.16017 112.583 5.25718 113.936 5.25718Z" fill="#003F72"/>
<path d="M113.936 33.1293C115.289 33.1293 116.386 32.0322 116.386 30.679C116.386 29.3258 115.289 28.2288 113.936 28.2288C112.583 28.2288 111.486 29.3258 111.486 30.679C111.486 32.0322 112.583 33.1293 113.936 33.1293Z" fill="#003F72"/>
<path d="M113.936 61C115.289 61 116.386 59.903 116.386 58.5497C116.386 57.1965 115.289 56.0995 113.936 56.0995C112.583 56.0995 111.486 57.1965 111.486 58.5497C111.486 59.903 112.583 61 113.936 61Z" fill="#003F72"/>
<path d="M141.807 5.25718C143.16 5.25718 144.257 4.16017 144.257 2.80694C144.257 1.45371 143.16 0.356689 141.807 0.356689C140.454 0.356689 139.357 1.45371 139.357 2.80694C139.357 4.16017 140.454 5.25718 141.807 5.25718Z" fill="#003F72"/>
<path d="M141.807 33.1293C143.16 33.1293 144.257 32.0322 144.257 30.679C144.257 29.3258 143.16 28.2288 141.807 28.2288C140.454 28.2288 139.357 29.3258 139.357 30.679C139.357 32.0322 140.454 33.1293 141.807 33.1293Z" fill="#003F72"/>
<path d="M141.807 61C143.16 61 144.257 59.903 144.257 58.5497C144.257 57.1965 143.16 56.0995 141.807 56.0995C140.454 56.0995 139.357 57.1965 139.357 58.5497C139.357 59.903 140.454 61 141.807 61Z" fill="#003F72"/>
<path d="M169.679 5.25718C171.032 5.25718 172.129 4.16017 172.129 2.80694C172.129 1.45371 171.032 0.356689 169.679 0.356689C168.326 0.356689 167.229 1.45371 167.229 2.80694C167.229 4.16017 168.326 5.25718 169.679 5.25718Z" fill="#003F72"/>
<path d="M169.679 33.1293C171.032 33.1293 172.129 32.0322 172.129 30.679C172.129 29.3258 171.032 28.2288 169.679 28.2288C168.326 28.2288 167.229 29.3258 167.229 30.679C167.229 32.0322 168.326 33.1293 169.679 33.1293Z" fill="#003F72"/>
<path d="M169.679 61C171.032 61 172.129 59.903 172.129 58.5497C172.129 57.1965 171.032 56.0995 169.679 56.0995C168.326 56.0995 167.229 57.1965 167.229 58.5497C167.229 59.903 168.326 61 169.679 61Z" fill="#003F72"/>
<path d="M197.55 5.25718C198.903 5.25718 200 4.16017 200 2.80694C200 1.45371 198.903 0.356689 197.55 0.356689C196.197 0.356689 195.1 1.45371 195.1 2.80694C195.1 4.16017 196.197 5.25718 197.55 5.25718Z" fill="#003F72"/>
<path d="M197.55 33.1293C198.903 33.1293 200 32.0322 200 30.679C200 29.3258 198.903 28.2288 197.55 28.2288C196.197 28.2288 195.1 29.3258 195.1 30.679C195.1 32.0322 196.197 33.1293 197.55 33.1293Z" fill="#003F72"/>
<path d="M197.55 61C198.903 61 200 59.903 200 58.5497C200 57.1965 198.903 56.0995 197.55 56.0995C196.197 56.0995 195.1 57.1965 195.1 58.5497C195.1 59.903 196.197 61 197.55 61Z" fill="#003F72"/>
</g>
</svg>
