<svg width="145" height="200" viewBox="0 0 145 200" fill="none" xmlns="http://www.w3.org/2000/svg">
<g opacity="0.7">
<path d="M3.19315 4.90049C4.54638 4.90049 5.64339 3.80348 5.64339 2.45025C5.64339 1.09701 4.54638 0 3.19315 0C1.83993 0 0.74292 1.09701 0.74292 2.45025C0.74292 3.80348 1.83993 4.90049 3.19315 4.90049Z" fill="#003F72"/>
<path d="M3.19315 32.7723C4.54638 32.7723 5.64339 31.6753 5.64339 30.3221C5.64339 28.9688 4.54638 27.8718 3.19315 27.8718C1.83993 27.8718 0.74292 28.9688 0.74292 30.3221C0.74292 31.6753 1.83993 32.7723 3.19315 32.7723Z" fill="#003F72"/>
<path d="M3.19315 60.6434C4.54638 60.6434 5.64339 59.5464 5.64339 58.1932C5.64339 56.8399 4.54638 55.7429 3.19315 55.7429C1.83993 55.7429 0.74292 56.8399 0.74292 58.1932C0.74292 59.5464 1.83993 60.6434 3.19315 60.6434Z" fill="#003F72"/>
<path d="M3.19315 88.515C4.54638 88.515 5.64339 87.418 5.64339 86.0647C5.64339 84.7115 4.54638 83.6145 3.19315 83.6145C1.83993 83.6145 0.74292 84.7115 0.74292 86.0647C0.74292 87.418 1.83993 88.515 3.19315 88.515Z" fill="#003F72"/>
<path d="M3.19315 116.386C4.54638 116.386 5.64339 115.289 5.64339 113.936C5.64339 112.583 4.54638 111.486 3.19315 111.486C1.83993 111.486 0.74292 112.583 0.74292 113.936C0.74292 115.289 1.83993 116.386 3.19315 116.386Z" fill="#003F72"/>
<path d="M3.19315 144.257C4.54638 144.257 5.64339 143.16 5.64339 141.807C5.64339 140.454 4.54638 139.357 3.19315 139.357C1.83993 139.357 0.74292 140.454 0.74292 141.807C0.74292 143.16 1.83993 144.257 3.19315 144.257Z" fill="#003F72"/>
<path d="M3.19315 172.129C4.54638 172.129 5.64339 171.032 5.64339 169.679C5.64339 168.326 4.54638 167.229 3.19315 167.229C1.83993 167.229 0.74292 168.326 0.74292 169.679C0.74292 171.032 1.83993 172.129 3.19315 172.129Z" fill="#003F72"/>
<path d="M3.19315 200C4.54638 200 5.64339 198.903 5.64339 197.55C5.64339 196.196 4.54638 195.099 3.19315 195.099C1.83993 195.099 0.74292 196.196 0.74292 197.55C0.74292 198.903 1.83993 200 3.19315 200Z" fill="#003F72"/>
<path d="M31.0642 4.90049C32.4175 4.90049 33.5145 3.80348 33.5145 2.45025C33.5145 1.09701 32.4175 0 31.0642 0C29.711 0 28.614 1.09701 28.614 2.45025C28.614 3.80348 29.711 4.90049 31.0642 4.90049Z" fill="#003F72"/>
<path d="M31.0647 32.7723C32.418 32.7723 33.515 31.6753 33.515 30.3221C33.515 28.9688 32.418 27.8718 31.0647 27.8718C29.7115 27.8718 28.6145 28.9688 28.6145 30.3221C28.6145 31.6753 29.7115 32.7723 31.0647 32.7723Z" fill="#003F72"/>
<path d="M31.0647 60.6434C32.418 60.6434 33.515 59.5464 33.515 58.1932C33.515 56.8399 32.418 55.7429 31.0647 55.7429C29.7115 55.7429 28.6145 56.8399 28.6145 58.1932C28.6145 59.5464 29.7115 60.6434 31.0647 60.6434Z" fill="#003F72"/>
<path d="M31.0647 88.515C32.418 88.515 33.515 87.418 33.515 86.0647C33.515 84.7115 32.418 83.6145 31.0647 83.6145C29.7115 83.6145 28.6145 84.7115 28.6145 86.0647C28.6145 87.418 29.7115 88.515 31.0647 88.515Z" fill="#003F72"/>
<path d="M31.0647 116.386C32.418 116.386 33.515 115.289 33.515 113.936C33.515 112.583 32.418 111.486 31.0647 111.486C29.7115 111.486 28.6145 112.583 28.6145 113.936C28.6145 115.289 29.7115 116.386 31.0647 116.386Z" fill="#003F72"/>
<path d="M31.0647 144.257C32.418 144.257 33.515 143.16 33.515 141.807C33.515 140.454 32.418 139.357 31.0647 139.357C29.7115 139.357 28.6145 140.454 28.6145 141.807C28.6145 143.16 29.7115 144.257 31.0647 144.257Z" fill="#003F72"/>
<path d="M31.0647 172.129C32.418 172.129 33.515 171.032 33.515 169.679C33.515 168.326 32.418 167.229 31.0647 167.229C29.7115 167.229 28.6145 168.326 28.6145 169.679C28.6145 171.032 29.7115 172.129 31.0647 172.129Z" fill="#003F72"/>
<path d="M31.0647 200C32.418 200 33.515 198.903 33.515 197.55C33.515 196.196 32.418 195.099 31.0647 195.099C29.7115 195.099 28.6145 196.196 28.6145 197.55C28.6145 198.903 29.7115 200 31.0647 200Z" fill="#003F72"/>
<path d="M58.9358 4.90049C60.2891 4.90049 61.3861 3.80348 61.3861 2.45025C61.3861 1.09701 60.2891 0 58.9358 0C57.5826 0 56.4856 1.09701 56.4856 2.45025C56.4856 3.80348 57.5826 4.90049 58.9358 4.90049Z" fill="#003F72"/>
<path d="M58.9358 32.7723C60.2891 32.7723 61.3861 31.6753 61.3861 30.3221C61.3861 28.9688 60.2891 27.8718 58.9358 27.8718C57.5826 27.8718 56.4856 28.9688 56.4856 30.3221C56.4856 31.6753 57.5826 32.7723 58.9358 32.7723Z" fill="#003F72"/>
<path d="M58.9358 60.6434C60.2891 60.6434 61.3861 59.5464 61.3861 58.1932C61.3861 56.8399 60.2891 55.7429 58.9358 55.7429C57.5826 55.7429 56.4856 56.8399 56.4856 58.1932C56.4856 59.5464 57.5826 60.6434 58.9358 60.6434Z" fill="#003F72"/>
<path d="M58.9358 88.515C60.2891 88.515 61.3861 87.418 61.3861 86.0647C61.3861 84.7115 60.2891 83.6145 58.9358 83.6145C57.5826 83.6145 56.4856 84.7115 56.4856 86.0647C56.4856 87.418 57.5826 88.515 58.9358 88.515Z" fill="#003F72"/>
<path d="M58.9358 116.386C60.2891 116.386 61.3861 115.289 61.3861 113.936C61.3861 112.583 60.2891 111.486 58.9358 111.486C57.5826 111.486 56.4856 112.583 56.4856 113.936C56.4856 115.289 57.5826 116.386 58.9358 116.386Z" fill="#003F72"/>
<path d="M58.9358 144.257C60.2891 144.257 61.3861 143.16 61.3861 141.807C61.3861 140.454 60.2891 139.357 58.9358 139.357C57.5826 139.357 56.4856 140.454 56.4856 141.807C56.4856 143.16 57.5826 144.257 58.9358 144.257Z" fill="#003F72"/>
<path d="M58.9358 172.129C60.2891 172.129 61.3861 171.032 61.3861 169.679C61.3861 168.326 60.2891 167.229 58.9358 167.229C57.5826 167.229 56.4856 168.326 56.4856 169.679C56.4856 171.032 57.5826 172.129 58.9358 172.129Z" fill="#003F72"/>
<path d="M58.9358 200C60.2891 200 61.3861 198.903 61.3861 197.55C61.3861 196.196 60.2891 195.099 58.9358 195.099C57.5826 195.099 56.4856 196.196 56.4856 197.55C56.4856 198.903 57.5826 200 58.9358 200Z" fill="#003F72"/>
<path d="M86.8071 4.90049C88.1603 4.90049 89.2573 3.80348 89.2573 2.45025C89.2573 1.09701 88.1603 0 86.8071 0C85.4538 0 84.3568 1.09701 84.3568 2.45025C84.3568 3.80348 85.4538 4.90049 86.8071 4.90049Z" fill="#003F72"/>
<path d="M86.8071 32.7723C88.1603 32.7723 89.2573 31.6753 89.2573 30.3221C89.2573 28.9688 88.1603 27.8718 86.8071 27.8718C85.4538 27.8718 84.3568 28.9688 84.3568 30.3221C84.3568 31.6753 85.4538 32.7723 86.8071 32.7723Z" fill="#003F72"/>
<path d="M86.8071 60.6434C88.1603 60.6434 89.2573 59.5464 89.2573 58.1932C89.2573 56.8399 88.1603 55.7429 86.8071 55.7429C85.4538 55.7429 84.3568 56.8399 84.3568 58.1932C84.3568 59.5464 85.4538 60.6434 86.8071 60.6434Z" fill="#003F72"/>
<path d="M86.8071 88.515C88.1603 88.515 89.2573 87.418 89.2573 86.0647C89.2573 84.7115 88.1603 83.6145 86.8071 83.6145C85.4538 83.6145 84.3568 84.7115 84.3568 86.0647C84.3568 87.418 85.4538 88.515 86.8071 88.515Z" fill="#003F72"/>
<path d="M86.8071 116.386C88.1603 116.386 89.2573 115.289 89.2573 113.936C89.2573 112.583 88.1603 111.486 86.8071 111.486C85.4538 111.486 84.3568 112.583 84.3568 113.936C84.3568 115.289 85.4538 116.386 86.8071 116.386Z" fill="#003F72"/>
<path d="M86.8071 144.257C88.1603 144.257 89.2573 143.16 89.2573 141.807C89.2573 140.454 88.1603 139.357 86.8071 139.357C85.4538 139.357 84.3568 140.454 84.3568 141.807C84.3568 143.16 85.4538 144.257 86.8071 144.257Z" fill="#003F72"/>
<path d="M86.8071 172.129C88.1603 172.129 89.2573 171.032 89.2573 169.679C89.2573 168.326 88.1603 167.229 86.8071 167.229C85.4538 167.229 84.3568 168.326 84.3568 169.679C84.3568 171.032 85.4538 172.129 86.8071 172.129Z" fill="#003F72"/>
<path d="M86.8071 200C88.1603 200 89.2573 198.903 89.2573 197.55C89.2573 196.196 88.1603 195.099 86.8071 195.099C85.4538 195.099 84.3568 196.196 84.3568 197.55C84.3568 198.903 85.4538 200 86.8071 200Z" fill="#003F72"/>
<path d="M114.679 4.90049C116.032 4.90049 117.129 3.80348 117.129 2.45025C117.129 1.09701 116.032 0 114.679 0C113.326 0 112.229 1.09701 112.229 2.45025C112.229 3.80348 113.326 4.90049 114.679 4.90049Z" fill="#003F72"/>
<path d="M114.679 32.7723C116.032 32.7723 117.129 31.6753 117.129 30.3221C117.129 28.9688 116.032 27.8718 114.679 27.8718C113.326 27.8718 112.229 28.9688 112.229 30.3221C112.229 31.6753 113.326 32.7723 114.679 32.7723Z" fill="#003F72"/>
<path d="M114.679 60.6434C116.032 60.6434 117.129 59.5464 117.129 58.1932C117.129 56.8399 116.032 55.7429 114.679 55.7429C113.326 55.7429 112.229 56.8399 112.229 58.1932C112.229 59.5464 113.326 60.6434 114.679 60.6434Z" fill="#003F72"/>
<path d="M114.679 88.515C116.032 88.515 117.129 87.418 117.129 86.0647C117.129 84.7115 116.032 83.6145 114.679 83.6145C113.326 83.6145 112.229 84.7115 112.229 86.0647C112.229 87.418 113.326 88.515 114.679 88.515Z" fill="#003F72"/>
<path d="M114.679 116.386C116.032 116.386 117.129 115.289 117.129 113.936C117.129 112.583 116.032 111.486 114.679 111.486C113.326 111.486 112.229 112.583 112.229 113.936C112.229 115.289 113.326 116.386 114.679 116.386Z" fill="#003F72"/>
<path d="M114.679 144.257C116.032 144.257 117.129 143.16 117.129 141.807C117.129 140.454 116.032 139.357 114.679 139.357C113.326 139.357 112.229 140.454 112.229 141.807C112.229 143.16 113.326 144.257 114.679 144.257Z" fill="#003F72"/>
<path d="M114.679 172.129C116.032 172.129 117.129 171.032 117.129 169.679C117.129 168.326 116.032 167.229 114.679 167.229C113.326 167.229 112.229 168.326 112.229 169.679C112.229 171.032 113.326 172.129 114.679 172.129Z" fill="#003F72"/>
<path d="M114.679 200C116.032 200 117.129 198.903 117.129 197.55C117.129 196.196 116.032 195.099 114.679 195.099C113.326 195.099 112.229 196.196 112.229 197.55C112.229 198.903 113.326 200 114.679 200Z" fill="#003F72"/>
<path d="M142.55 4.90049C143.903 4.90049 145 3.80348 145 2.45025C145 1.09701 143.903 0 142.55 0C141.197 0 140.099 1.09701 140.099 2.45025C140.099 3.80348 141.197 4.90049 142.55 4.90049Z" fill="#003F72"/>
<path d="M142.55 32.7723C143.903 32.7723 145 31.6753 145 30.3221C145 28.9688 143.903 27.8718 142.55 27.8718C141.197 27.8718 140.099 28.9688 140.099 30.3221C140.099 31.6753 141.197 32.7723 142.55 32.7723Z" fill="#003F72"/>
<path d="M142.55 60.6434C143.903 60.6434 145 59.5464 145 58.1932C145 56.8399 143.903 55.7429 142.55 55.7429C141.197 55.7429 140.099 56.8399 140.099 58.1932C140.099 59.5464 141.197 60.6434 142.55 60.6434Z" fill="#003F72"/>
<path d="M142.55 88.515C143.903 88.515 145 87.418 145 86.0647C145 84.7115 143.903 83.6145 142.55 83.6145C141.197 83.6145 140.099 84.7115 140.099 86.0647C140.099 87.418 141.197 88.515 142.55 88.515Z" fill="#003F72"/>
<path d="M142.55 116.386C143.903 116.386 145 115.289 145 113.936C145 112.583 143.903 111.486 142.55 111.486C141.197 111.486 140.099 112.583 140.099 113.936C140.099 115.289 141.197 116.386 142.55 116.386Z" fill="#003F72"/>
<path d="M142.55 144.257C143.903 144.257 145 143.16 145 141.807C145 140.454 143.903 139.357 142.55 139.357C141.197 139.357 140.099 140.454 140.099 141.807C140.099 143.16 141.197 144.257 142.55 144.257Z" fill="#003F72"/>
<path d="M142.55 172.129C143.903 172.129 145 171.032 145 169.679C145 168.326 143.903 167.229 142.55 167.229C141.197 167.229 140.099 168.326 140.099 169.679C140.099 171.032 141.197 172.129 142.55 172.129Z" fill="#003F72"/>
<path d="M142.55 200C143.903 200 145 198.903 145 197.55C145 196.196 143.903 195.099 142.55 195.099C141.197 195.099 140.099 196.196 140.099 197.55C140.099 198.903 141.197 200 142.55 200Z" fill="#003F72"/>
</g>
</svg>
