<svg width="200" height="61" viewBox="0 0 200 61" fill="none" xmlns="http://www.w3.org/2000/svg">
<g opacity="0.7">
<path d="M2.45023 4.90049C3.80346 4.90049 4.90046 3.80348 4.90046 2.45025C4.90046 1.09701 3.80346 0 2.45023 0C1.09701 0 0 1.09701 0 2.45025C0 3.80348 1.09701 4.90049 2.45023 4.90049Z" fill="#003F72"/>
<path d="M2.45023 32.7723C3.80346 32.7723 4.90046 31.6753 4.90046 30.3221C4.90046 28.9688 3.80346 27.8718 2.45023 27.8718C1.09701 27.8718 0 28.9688 0 30.3221C0 31.6753 1.09701 32.7723 2.45023 32.7723Z" fill="#003F72"/>
<path d="M2.45023 60.6434C3.80346 60.6434 4.90046 59.5464 4.90046 58.1932C4.90046 56.8399 3.80346 55.7429 2.45023 55.7429C1.09701 55.7429 0 56.8399 0 58.1932C0 59.5464 1.09701 60.6434 2.45023 60.6434Z" fill="#003F72"/>
<path d="M30.3217 4.90049C31.6749 4.90049 32.7719 3.80348 32.7719 2.45025C32.7719 1.09701 31.6749 0 30.3217 0C28.9685 0 27.8715 1.09701 27.8715 2.45025C27.8715 3.80348 28.9685 4.90049 30.3217 4.90049Z" fill="#003F72"/>
<path d="M30.3217 32.7723C31.6749 32.7723 32.7719 31.6753 32.7719 30.3221C32.7719 28.9688 31.6749 27.8718 30.3217 27.8718C28.9685 27.8718 27.8715 28.9688 27.8715 30.3221C27.8715 31.6753 28.9685 32.7723 30.3217 32.7723Z" fill="#003F72"/>
<path d="M30.3217 60.6434C31.6749 60.6434 32.7719 59.5464 32.7719 58.1932C32.7719 56.8399 31.6749 55.7429 30.3217 55.7429C28.9685 55.7429 27.8715 56.8399 27.8715 58.1932C27.8715 59.5464 28.9685 60.6434 30.3217 60.6434Z" fill="#003F72"/>
<path d="M58.1932 4.90049C59.5464 4.90049 60.6434 3.80348 60.6434 2.45025C60.6434 1.09701 59.5464 0 58.1932 0C56.8399 0 55.7429 1.09701 55.7429 2.45025C55.7429 3.80348 56.8399 4.90049 58.1932 4.90049Z" fill="#003F72"/>
<path d="M58.1932 32.7723C59.5464 32.7723 60.6434 31.6753 60.6434 30.3221C60.6434 28.9688 59.5464 27.8718 58.1932 27.8718C56.8399 27.8718 55.7429 28.9688 55.7429 30.3221C55.7429 31.6753 56.8399 32.7723 58.1932 32.7723Z" fill="#003F72"/>
<path d="M58.1932 60.6434C59.5464 60.6434 60.6434 59.5464 60.6434 58.1932C60.6434 56.8399 59.5464 55.7429 58.1932 55.7429C56.8399 55.7429 55.7429 56.8399 55.7429 58.1932C55.7429 59.5464 56.8399 60.6434 58.1932 60.6434Z" fill="#003F72"/>
<path d="M86.0642 4.90049C87.4175 4.90049 88.5145 3.80348 88.5145 2.45025C88.5145 1.09701 87.4175 0 86.0642 0C84.711 0 83.614 1.09701 83.614 2.45025C83.614 3.80348 84.711 4.90049 86.0642 4.90049Z" fill="#003F72"/>
<path d="M86.0647 32.7723C87.418 32.7723 88.515 31.6753 88.515 30.3221C88.515 28.9688 87.418 27.8718 86.0647 27.8718C84.7115 27.8718 83.6145 28.9688 83.6145 30.3221C83.6145 31.6753 84.7115 32.7723 86.0647 32.7723Z" fill="#003F72"/>
<path d="M86.0647 60.6434C87.418 60.6434 88.515 59.5464 88.515 58.1932C88.515 56.8399 87.418 55.7429 86.0647 55.7429C84.7115 55.7429 83.6145 56.8399 83.6145 58.1932C83.6145 59.5464 84.7115 60.6434 86.0647 60.6434Z" fill="#003F72"/>
<path d="M113.936 4.90049C115.289 4.90049 116.386 3.80348 116.386 2.45025C116.386 1.09701 115.289 0 113.936 0C112.583 0 111.486 1.09701 111.486 2.45025C111.486 3.80348 112.583 4.90049 113.936 4.90049Z" fill="#003F72"/>
<path d="M113.936 32.7723C115.289 32.7723 116.386 31.6753 116.386 30.3221C116.386 28.9688 115.289 27.8718 113.936 27.8718C112.583 27.8718 111.486 28.9688 111.486 30.3221C111.486 31.6753 112.583 32.7723 113.936 32.7723Z" fill="#003F72"/>
<path d="M113.936 60.6434C115.289 60.6434 116.386 59.5464 116.386 58.1932C116.386 56.8399 115.289 55.7429 113.936 55.7429C112.583 55.7429 111.486 56.8399 111.486 58.1932C111.486 59.5464 112.583 60.6434 113.936 60.6434Z" fill="#003F72"/>
<path d="M141.807 4.90049C143.16 4.90049 144.257 3.80348 144.257 2.45025C144.257 1.09701 143.16 0 141.807 0C140.454 0 139.357 1.09701 139.357 2.45025C139.357 3.80348 140.454 4.90049 141.807 4.90049Z" fill="#003F72"/>
<path d="M141.807 32.7723C143.16 32.7723 144.257 31.6753 144.257 30.3221C144.257 28.9688 143.16 27.8718 141.807 27.8718C140.454 27.8718 139.357 28.9688 139.357 30.3221C139.357 31.6753 140.454 32.7723 141.807 32.7723Z" fill="#003F72"/>
<path d="M141.807 60.6434C143.16 60.6434 144.257 59.5464 144.257 58.1932C144.257 56.8399 143.16 55.7429 141.807 55.7429C140.454 55.7429 139.357 56.8399 139.357 58.1932C139.357 59.5464 140.454 60.6434 141.807 60.6434Z" fill="#003F72"/>
<path d="M169.679 4.90049C171.032 4.90049 172.129 3.80348 172.129 2.45025C172.129 1.09701 171.032 0 169.679 0C168.326 0 167.229 1.09701 167.229 2.45025C167.229 3.80348 168.326 4.90049 169.679 4.90049Z" fill="#003F72"/>
<path d="M169.679 32.7723C171.032 32.7723 172.129 31.6753 172.129 30.3221C172.129 28.9688 171.032 27.8718 169.679 27.8718C168.326 27.8718 167.229 28.9688 167.229 30.3221C167.229 31.6753 168.326 32.7723 169.679 32.7723Z" fill="#003F72"/>
<path d="M169.679 60.6434C171.032 60.6434 172.129 59.5464 172.129 58.1932C172.129 56.8399 171.032 55.7429 169.679 55.7429C168.326 55.7429 167.229 56.8399 167.229 58.1932C167.229 59.5464 168.326 60.6434 169.679 60.6434Z" fill="#003F72"/>
<path d="M197.55 4.90049C198.903 4.90049 200 3.80348 200 2.45025C200 1.09701 198.903 0 197.55 0C196.197 0 195.099 1.09701 195.099 2.45025C195.099 3.80348 196.197 4.90049 197.55 4.90049Z" fill="#003F72"/>
<path d="M197.55 32.7723C198.903 32.7723 200 31.6753 200 30.3221C200 28.9688 198.903 27.8718 197.55 27.8718C196.197 27.8718 195.099 28.9688 195.099 30.3221C195.099 31.6753 196.197 32.7723 197.55 32.7723Z" fill="#003F72"/>
<path d="M197.55 60.6434C198.903 60.6434 200 59.5464 200 58.1932C200 56.8399 198.903 55.7429 197.55 55.7429C196.197 55.7429 195.099 56.8399 195.099 58.1932C195.099 59.5464 196.197 60.6434 197.55 60.6434Z" fill="#003F72"/>
</g>
</svg>
