<svg width="152" height="17" viewBox="0 0 152 17" fill="none" xmlns="http://www.w3.org/2000/svg">
<path d="M144.724 0.683425C141.811 0.242729 106.818 -0.6045 86.901 0.683431C48.5673 3.16235 14.5164 9.22192 6.59258 11.4254C-1.33118 13.6288 -1.61365 15.1489 3.09785 15.6998C8.02338 16.2757 16.4438 16.1078 21.5835 14.7306C20.7983 15.3733 20.2304 17.3878 21.5835 16.9341C22.8002 16.5261 66.342 11.9763 68.9121 11.9763C71.4822 11.9763 78.121 12.5272 80.4766 11.9763C82.8322 11.4254 139.057 12.7156 142.796 12.8026C148.938 12.9454 150.866 12.9454 151.362 12.5272C152.174 11.8437 150.078 8.48744 149.007 7.29386C151.722 8.26304 152.151 7.71217 151.722 6.335C150.923 3.7649 148.364 1.2343 144.724 0.683425Z" fill="#BDD8FD"/>
</svg>
